<svg xmlns="http://www.w3.org/2000/svg" viewBox="0 0 500 500" width="500" height="500"><defs></defs><g>
<g>
	<g>
		<path d="M0,500 C0,500 250,0 250,0" fill="none" stroke="#d9ba7a" stroke-width="12" stroke-linecap="round"/>
	</g>
	<g>
		<path d="M500,500 C500,500 250,0 250,0" fill="none" stroke="#d9ba7a" stroke-width="12" stroke-linecap="round"/>
	</g>
	<g>
		<path d="M0,500 C0,500 500,500 500,500" fill="none" stroke="#d9ba7a" stroke-width="12" stroke-linecap="round"/>
	</g>
	<g>
		<path d="M167.22222222222126,320.22222222222285 C167.22222222222126,311.6389034567715 174.1944590123255,304.6666666666673 182.7777777777768,304.6666666666673 L317.22222222222126,304.6666666666673 C325.80554098767254,304.6666666666673 332.7777777777768,311.6389034567715 332.7777777777768,320.22222222222285 L332.7777777777768,404.22222222222285 C332.7777777777768,412.8055409876742 325.80554098767254,419.7777777777784 317.22222222222126,419.7777777777784 L182.7777777777768,419.7777777777784 C174.1944590123255,419.7777777777784 167.22222222222126,412.8055409876742 167.22222222222126,404.22222222222285 L167.22222222222126,320.22222222222285 Z" transform="matrix(1,0,0,1,0,0)" fill="#d9bb7b" stroke="#d9ba7a" stroke-width="2"/>
	</g>
	<g>
		<path d="M196.44542100694346,304.66666666666725 C192.2145447100275,290.4920634920638 187.98366841311153,276.31746031746036 196.4444444444444,255.55555555555554 C204.90522047577727,234.7936507936507 226.0576488353588,207.44444444444434 250,208.88888888888886 C273.9423511646412,210.33333333333337 300.674625134342,240.57142857142844 311.5555555555555,261.3333333333333 C322.43648597676895,282.0952380952382 317.4660728494951,293.3809523809528 312.49565972222126,304.6666666666673" fill="none" stroke="#d9ba7a" stroke-width="15.59999999999999" stroke-linecap="square"/>
	</g>
	<g>
		<path d="M249.9999999999999,323.2592592592593 C258.7468105514598,323.2592592592593 265.85185185185173,328.90345094648654 265.85185185185173,335.8518518518519 C265.85185185185173,342.80025275721727 258.7468105514598,348.4444444444445 249.9999999999999,348.4444444444445 C241.25318944853996,348.4444444444445 234.14814814814804,342.80025275721727 234.14814814814804,335.8518518518519 C234.14814814814804,328.90345094648654 241.25318944853996,323.2592592592593 249.9999999999999,323.2592592592593 Z" fill="#000000"/>
	</g>
	<g>
		<path d="M246.22222222222217,342.22222222222223 L254.81102108670086,342.22222222222223 L254.81102108670086,373.62962962962973 L246.22222222222217,373.62962962962973 L246.22222222222217,342.22222222222223 Z" fill="#000000"/>
	</g>
</g></g></svg>